<?xml version="1.0" encoding="UTF-8"?>
<svg id="Layer_2" data-name="Layer 2" xmlns="http://www.w3.org/2000/svg" viewBox="0 0 291.5 229.43">
  <g id="Calque_1" data-name="Calque 1">
    <g>
      <path d="m143.8,95.73v50.6c5.3-13.9,5-32.7,0-50.6Zm27.6-56.3l21.1-15,.5,185.9c2.8.5,3.6.1,5.9.3l.1-188.2s23.2,8.4,39.3,12.8c16.1,4.5,25.6,1.4,25.6,1.4,0,0,9.5-10,16.8-18.5l-.3-3.9s-7.7,3.2-24.1,1c-14.6-2-50.3-13-50.3-13l-51.5,39.8c9.1,14.6,15.6,32.2,18.4,51.7l-1.5-54.3Zm116.2,131s-33.5,43.1-88.7,40.1c-1.2-.1-5.9-.3-5.9-.3-20.5-2.8-38.2-9.2-54.3-21.4-8.5,8.3-9.7,9.4-19.7,16.7,16.5,14.3,38.3,23.9,67.4,23.9,63.3,0,105.1-55.6,105.1-55.6l-3.9-3.4Zm-179.3,24.6c-40.4,24.1-86.4-2.4-86.4-2.4l-16.3,23.4s45.4,35.7,113.4-10.3c-3.9-3.5-8.4-8.2-10.7-10.7ZM156.1,18.33s-2.2-3.2-2.8-4c-5.2,2.5-9.9,5.1-14.5,8,1.6,1.5,3.3,3.3,4.8,5,7.4-6.3,12.5-9,12.5-9Zm16.9,75.4l-.7,31.7s-10.1,14-14.8,20.7c-4.8,6.7-18.1,20.9-18.1,20.9l4.4-20.7c-3,7.8-14.7,24-21.4,27.7,7,8,12.7,12.1,16.3,14.8,14.5-14.5,34-43.1,35.6-62.5.9-11.2.2-22.1-1.3-32.6Zm-45,86.4c-52-59.2-14.3-118.4-1.7-135-1.9-2.3-5.3-5.8-6.3-6.5-73.7,79.2-25.8,141.4-11.7,156.4,8.5-5,15.4-10.7,19.7-14.9Zm-1.7-135.1c9.5,9.9,16.3,29.2,17.5,50.7v-45.6l10.7-8.1c-3.5-5.6-6.7-10.1-10.9-14.7-5.2,4.5-8.3,7.1-17.3,17.7Z" style="fill: #a61e30; stroke-width: 0px;"/>
      <path d="m120.1,38.33c7.3-6.8,9.4-9,18.8-16-8.4-7.1-18.6-13.3-29.4-17.2C70.4-8.57,28.2,6.03,0,38.63l2.2,1.7c31.4-17.2,78.9-37.7,117.9-2Z" style="fill: #a61e30; stroke-width: 0px;"/>
    </g>
  </g>
</svg>